<svg width="16" height="16" viewBox="0 0 16 16" fill="none" xmlns="http://www.w3.org/2000/svg">
<path d="M7.99995 1.68457C7.4818 1.68457 6.96365 1.93724 6.68355 2.44303L1.52339 11.7653C0.979183 12.7486 1.71598 14.0003 2.8398 14.0003H13.1608C14.2846 14.0003 15.0214 12.7486 14.4772 11.7653L9.31636 2.44303C9.03626 1.93724 8.5181 1.68457 7.99995 1.68457ZM7.99995 2.65007C8.16947 2.65007 8.33879 2.7422 8.44136 2.92741L13.6022 12.2497C13.8 12.6071 13.5683 13.0003 13.1608 13.0003H2.8398C2.43228 13.0003 2.2006 12.6071 2.39839 12.2497L7.55855 2.92741C7.66111 2.7422 7.83044 2.65007 7.99995 2.65007ZM7.99214 5.3265C7.85964 5.32857 7.73339 5.38314 7.6411 5.47824C7.54882 5.57333 7.49805 5.70116 7.49995 5.83366V9.16699C7.49901 9.23325 7.51126 9.29903 7.53596 9.36051C7.56067 9.422 7.59735 9.47796 7.64387 9.52514C7.69039 9.57233 7.74583 9.6098 7.80696 9.63537C7.86809 9.66094 7.93369 9.67411 7.99995 9.67411C8.06621 9.67411 8.13182 9.66094 8.19295 9.63537C8.25407 9.6098 8.30951 9.57233 8.35603 9.52514C8.40255 9.47796 8.43923 9.422 8.46394 9.36051C8.48865 9.29903 8.50089 9.23325 8.49995 9.16699V5.83366C8.50091 5.76674 8.48843 5.7003 8.46324 5.63829C8.43805 5.57629 8.40067 5.51997 8.35331 5.47267C8.30596 5.42538 8.24959 5.38807 8.18755 5.36296C8.12551 5.33785 8.05906 5.32545 7.99214 5.3265ZM7.99995 10.667C7.82314 10.667 7.65357 10.7372 7.52855 10.8623C7.40352 10.9873 7.33329 11.1568 7.33329 11.3337C7.33329 11.5105 7.40352 11.68 7.52855 11.8051C7.65357 11.9301 7.82314 12.0003 7.99995 12.0003C8.17676 12.0003 8.34633 11.9301 8.47136 11.8051C8.59638 11.68 8.66662 11.5105 8.66662 11.3337C8.66662 11.1568 8.59638 10.9873 8.47136 10.8623C8.34633 10.7372 8.17676 10.667 7.99995 10.667Z" fill="#D53232"/>
</svg>
